<svg width="15" height="19" viewBox="0 0 15 19" fill="none" xmlns="http://www.w3.org/2000/svg">
<path d="M13.107 8.49475L8.13525 0.577754C8.06312 0.476512 7.96783 0.393976 7.85733 0.337027C7.74683 0.280079 7.62431 0.250366 7.5 0.250366C7.37569 0.250366 7.25318 0.280079 7.14267 0.337027C7.03217 0.393976 6.93688 0.476512 6.86475 0.577754L1.8705 8.53225C1.17666 9.65145 0.790174 10.9338 0.75 12.25C0.75 14.0402 1.46116 15.7571 2.72703 17.023C3.9929 18.2888 5.70979 19 7.5 19C9.29021 19 11.0071 18.2888 12.273 17.023C13.5388 15.7571 14.25 14.0402 14.25 12.25C14.2069 10.9194 13.8125 9.62378 13.107 8.49475V8.49475ZM7.5 17.5C6.10816 17.4982 4.77384 16.9445 3.78966 15.9603C2.80548 14.9762 2.25179 13.6418 2.25 12.25C2.28986 11.2012 2.6049 10.1813 3.1635 9.29275L3.86475 8.17525L11.4202 15.7308C10.9295 16.2867 10.3263 16.732 9.6504 17.0372C8.97454 17.3423 8.24155 17.5003 7.5 17.5008V17.5Z" fill="#4B3EAE"/>
</svg>
