<svg width="24" height="20" viewBox="0 0 24 20" fill="none" xmlns="http://www.w3.org/2000/svg">
<path d="M19.9547 3.54297C17.8847 1.48538 15.0962 0.31278 12.1778 0.272772C9.25947 0.232763 6.4398 1.32848 4.31422 3.32855C2.18864 5.32862 0.923551 8.07647 0.786086 10.9918C0.648622 13.9072 1.64955 16.7619 3.5775 18.9531L3.58594 18.9625C3.60141 18.9789 3.61594 18.9958 3.63281 19.0117C3.6675 19.0511 3.70688 19.0956 3.75328 19.142C3.93527 19.3355 4.15524 19.4893 4.3994 19.5938C4.64357 19.6983 4.90668 19.7513 5.17226 19.7494C5.43785 19.7476 5.7002 19.6909 5.94288 19.583C6.18557 19.4751 6.40337 19.3183 6.58266 19.1223C7.2725 18.3726 8.11037 17.7742 9.04332 17.3648C9.97627 16.9554 10.984 16.7441 12.0028 16.7441C13.0216 16.7441 14.0294 16.9554 14.9623 17.3648C15.8953 17.7742 16.7331 18.3726 17.423 19.1223C17.6036 19.3193 17.8231 19.4767 18.0677 19.5844C18.3123 19.6921 18.5766 19.7479 18.8438 19.7481C19.1111 19.7484 19.3755 19.6932 19.6203 19.5859C19.8651 19.4787 20.0849 19.3218 20.2659 19.1252L20.4164 18.9611L20.4248 18.9517C22.3245 16.8067 23.3338 14.0174 23.2466 11.1534C23.1595 8.28948 21.9826 5.56674 19.9561 3.54109L19.9547 3.54297ZM11.25 4C11.25 3.80109 11.329 3.61032 11.4697 3.46967C11.6103 3.32902 11.8011 3.25 12 3.25C12.1989 3.25 12.3897 3.32902 12.5303 3.46967C12.671 3.61032 12.75 3.80109 12.75 4V5.5C12.75 5.69891 12.671 5.88968 12.5303 6.03033C12.3897 6.17098 12.1989 6.25 12 6.25C11.8011 6.25 11.6103 6.17098 11.4697 6.03033C11.329 5.88968 11.25 5.69891 11.25 5.5V4ZM6 12.25H4.5C4.30109 12.25 4.11032 12.171 3.96967 12.0303C3.82902 11.8897 3.75 11.6989 3.75 11.5C3.75 11.3011 3.82902 11.1103 3.96967 10.9697C4.11032 10.829 4.30109 10.75 4.5 10.75H6C6.19891 10.75 6.38968 10.829 6.53033 10.9697C6.67098 11.1103 6.75 11.3011 6.75 11.5C6.75 11.6989 6.67098 11.8897 6.53033 12.0303C6.38968 12.171 6.19891 12.25 6 12.25V12.25ZM8.2875 7.7875C8.14686 7.92805 7.95617 8.007 7.75734 8.007C7.55852 8.007 7.36783 7.92805 7.22719 7.7875L6.16641 6.72719C6.02574 6.58652 5.94671 6.39573 5.94671 6.1968C5.94671 5.99786 6.02574 5.80708 6.16641 5.66641C6.30707 5.52574 6.49786 5.44671 6.6968 5.44671C6.89573 5.44671 7.08652 5.52574 7.22719 5.66641L8.2875 6.72719C8.42805 6.86783 8.507 7.05852 8.507 7.25734C8.507 7.45617 8.42805 7.64686 8.2875 7.7875V7.7875ZM15.2859 8.87031L13.0594 12.4094C12.9683 12.5356 12.8575 12.6464 12.7313 12.7375C12.4265 12.9501 12.0501 13.034 11.6839 12.9708C11.3177 12.9077 10.9912 12.7027 10.7752 12.4003C10.5592 12.0979 10.4712 11.7225 10.5302 11.3557C10.5893 10.9888 10.7907 10.66 11.0906 10.4406L14.6297 8.21406C14.7101 8.15799 14.8058 8.12792 14.9039 8.12792C15.002 8.12792 15.0977 8.15799 15.1781 8.21406C15.2792 8.28701 15.3472 8.39698 15.3674 8.51995C15.3876 8.64291 15.3583 8.76888 15.2859 8.87031ZM16.7728 7.7875C16.631 7.92222 16.4422 7.99621 16.2466 7.99371C16.0511 7.9912 15.8642 7.9124 15.7259 7.7741C15.5876 7.6358 15.5088 7.44894 15.5063 7.25337C15.5038 7.0578 15.5778 6.86898 15.7125 6.72719L16.7728 5.66641C16.9135 5.52574 17.1043 5.44671 17.3032 5.44671C17.5021 5.44671 17.6929 5.52574 17.8336 5.66641C17.9743 5.80708 18.0533 5.99786 18.0533 6.1968C18.0533 6.39573 17.9743 6.58652 17.8336 6.72719L16.7728 7.7875ZM19.5 12.25H18C17.8011 12.25 17.6103 12.171 17.4697 12.0303C17.329 11.8897 17.25 11.6989 17.25 11.5C17.25 11.3011 17.329 11.1103 17.4697 10.9697C17.6103 10.829 17.8011 10.75 18 10.75H19.5C19.6989 10.75 19.8897 10.829 20.0303 10.9697C20.171 11.1103 20.25 11.3011 20.25 11.5C20.25 11.6989 20.171 11.8897 20.0303 12.0303C19.8897 12.171 19.6989 12.25 19.5 12.25Z" fill="#4B3EAE"/>
</svg>
