<svg width="21" height="20" viewBox="0 0 21 20" fill="none" xmlns="http://www.w3.org/2000/svg">
<path d="M3 6H11.5C11.9644 6.00889 12.4222 5.8882 12.8218 5.65149C13.2215 5.41477 13.5473 5.07138 13.7627 4.65983C13.9782 4.24828 14.0747 3.78486 14.0414 3.32153C14.0082 2.85821 13.8465 2.41331 13.5745 2.03673C13.3026 1.66016 12.931 1.3668 12.5017 1.18957C12.0723 1.01234 11.602 0.958247 11.1436 1.03335C10.6852 1.10846 10.2568 1.30979 9.90643 1.61477C9.55606 1.91976 9.29758 2.31633 9.16 2.76" stroke="#4B3EAE" stroke-width="2" stroke-linecap="round" stroke-linejoin="round"/>
<path d="M1 10H16.5C16.9644 9.99111 17.4222 10.1118 17.8218 10.3485C18.2215 10.5852 18.5473 10.9286 18.7627 11.3402C18.9782 11.7517 19.0747 12.2151 19.0414 12.6785C19.0082 13.1418 18.8465 13.5867 18.5745 13.9633C18.3026 14.3398 17.931 14.6332 17.5017 14.8104C17.0723 14.9877 16.602 15.0418 16.1436 14.9667C15.6852 14.8915 15.2568 14.6902 14.9064 14.3852C14.5561 14.0802 14.2976 13.6837 14.16 13.24" stroke="#4B3EAE" stroke-width="2" stroke-linecap="round" stroke-linejoin="round"/>
<path d="M2 14H7.5C7.96443 13.9911 8.42216 14.1118 8.82183 14.3485C9.22151 14.5852 9.54733 14.9286 9.76274 15.3402C9.97816 15.7517 10.0747 16.2151 10.0414 16.6785C10.0082 17.1418 9.8465 17.5867 9.57453 17.9633C9.30256 18.3398 8.93105 18.6332 8.50167 18.8104C8.07229 18.9877 7.60203 19.0418 7.14362 18.9667C6.68522 18.8915 6.2568 18.6902 5.90643 18.3852C5.55605 18.0802 5.29758 17.6837 5.16 17.24" stroke="#4B3EAE" stroke-width="2" stroke-linecap="round" stroke-linejoin="round"/>
</svg>
